<?xml version="1.0" encoding="UTF-8"?>
<!--Generator: Apple Native CoreSVG 326-->
<!DOCTYPE svg
PUBLIC "-//W3C//DTD SVG 1.1//EN"
       "http://www.w3.org/Graphics/SVG/1.1/DTD/svg11.dtd">
<svg version="1.1" xmlns="http://www.w3.org/2000/svg" xmlns:xlink="http://www.w3.org/1999/xlink" viewBox="0 0 788.574 788.574">
 <g>
  <rect height="788.574" opacity="0" width="788.574" x="0" y="0"/>
  <path d="M394.043 788.086C611.816 788.086 788.574 611.816 788.574 394.043C788.574 176.27 611.816 0 394.043 0C176.758 0 0 176.27 0 394.043C0 611.816 176.758 788.086 394.043 788.086ZM394.043 713.867C217.285 713.867 74.707 570.801 74.707 394.043C74.707 217.285 217.285 74.2188 394.043 74.2188C570.801 74.2188 713.867 217.285 713.867 394.043C713.867 570.801 570.801 713.867 394.043 713.867Z" fill="white" fill-opacity="0.85"/>
  <path d="M238.281 586.426L454.59 481.934C467.285 476.074 476.074 466.797 482.422 454.102L585.938 238.281C599.121 210.449 578.613 188.477 549.316 202.148L333.984 305.664C321.289 311.523 312.988 320.312 306.152 333.984L202.148 550.293C188.965 577.148 210.938 599.121 238.281 586.426ZM394.043 441.406C368.164 441.406 347.168 420.41 347.168 394.531C347.168 368.652 368.164 347.656 394.043 347.656C419.922 347.656 440.918 368.652 440.918 394.531C440.918 420.41 419.922 441.406 394.043 441.406Z" fill="white" fill-opacity="0.85"/>
 </g>
</svg>
